<svg width="143" height="151" viewBox="0 0 143 151" fill="none" xmlns="http://www.w3.org/2000/svg">
<g filter="url(#filter0_d_3_43)">
<path d="M71.5 0L133.421 35.75V107.25L71.5 143L9.57919 107.25V35.75L71.5 0Z" fill="#1E1E1E"/>
</g>
<g filter="url(#filter1_d_3_43)">
<path d="M19.4256 73.6591V70.75L47.2438 55.4318V59.8864L24.4256 72.1818L24.6528 71.7955V72.6364L24.4256 72.25L47.2438 84.5455V89L19.4256 73.6591ZM90.4176 63H86.1449C85.8267 61.4091 85.2509 59.9394 84.4176 58.5909C83.5994 57.2273 82.5691 56.0379 81.3267 55.0227C80.0843 54.0076 78.6752 53.2197 77.0994 52.6591C75.5237 52.0985 73.8191 51.8182 71.9858 51.8182C69.0464 51.8182 66.3646 52.5833 63.9403 54.1136C61.5313 55.6439 59.5994 57.8939 58.1449 60.8636C56.7055 63.8182 55.9858 67.4394 55.9858 71.7273C55.9858 76.0455 56.7055 79.6818 58.1449 82.6364C59.5994 85.5909 61.5313 87.8333 63.9403 89.3636C66.3646 90.8788 69.0464 91.6364 71.9858 91.6364C73.8191 91.6364 75.5237 91.3561 77.0994 90.7955C78.6752 90.2348 80.0843 89.4545 81.3267 88.4545C82.5691 87.4394 83.5994 86.25 84.4176 84.8864C85.2509 83.5227 85.8267 82.0455 86.1449 80.4545H90.4176C90.0388 82.5909 89.3267 84.5833 88.2812 86.4318C87.2509 88.2652 85.9328 89.8712 84.3267 91.25C82.7358 92.6288 80.9025 93.7045 78.8267 94.4773C76.7509 95.25 74.4706 95.6364 71.9858 95.6364C68.0767 95.6364 64.607 94.6591 61.5767 92.7045C58.5464 90.7348 56.1676 87.9621 54.4403 84.3864C52.7282 80.8106 51.8722 76.5909 51.8722 71.7273C51.8722 66.8636 52.7282 62.6439 54.4403 59.0682C56.1676 55.4924 58.5464 52.7273 61.5767 50.7727C64.607 48.803 68.0767 47.8182 71.9858 47.8182C74.4706 47.8182 76.7509 48.2045 78.8267 48.9773C80.9025 49.7348 82.7358 50.8106 84.3267 52.2045C85.9328 53.5833 87.2509 55.1894 88.2812 57.0227C89.3267 58.8561 90.0388 60.8485 90.4176 63ZM122.569 73.6591L94.7506 89V84.5455L117.569 72.25L117.364 72.6364V71.7955L117.569 72.1818L94.7506 59.8864V55.4318L122.569 70.75V73.6591Z" fill="url(#paint0_angular_3_43)"/>
</g>
<path d="M87.1054 75.0511V67.858H88.077V75.0511H87.1054ZM83.9918 71.9375V70.9716H91.1906V71.9375H83.9918ZM95.9273 75.0511V67.858H96.8989V75.0511H95.9273ZM92.8136 71.9375V70.9716H100.012V71.9375H92.8136Z" fill="#101010"/>
<path d="M42.9423 103.364V115H41.9082L35.0332 105.256H34.9423V115H33.8798V103.364H34.9082L41.806 113.119H41.8969V103.364H42.9423ZM46.6634 115.199C46.1368 115.199 45.6558 115.097 45.2202 114.892C44.7846 114.684 44.438 114.384 44.1804 113.994C43.9228 113.6 43.794 113.123 43.794 112.562C43.794 112.131 43.8755 111.767 44.0384 111.472C44.2012 111.176 44.4323 110.934 44.7315 110.744C45.0308 110.555 45.3849 110.405 45.794 110.295C46.2031 110.186 46.6539 110.1 47.1463 110.04C47.6349 109.979 48.0478 109.926 48.3849 109.881C48.7259 109.835 48.9853 109.763 49.1634 109.665C49.3414 109.566 49.4304 109.407 49.4304 109.188V108.983C49.4304 108.388 49.2524 107.92 48.8963 107.58C48.544 107.235 48.0365 107.062 47.3736 107.062C46.7448 107.062 46.2315 107.201 45.8338 107.477C45.4399 107.754 45.1634 108.08 45.0043 108.455L44.044 108.108C44.241 107.631 44.5137 107.25 44.8622 106.966C45.2107 106.678 45.6009 106.472 46.0327 106.347C46.4645 106.218 46.902 106.153 47.3452 106.153C47.6785 106.153 48.0251 106.197 48.3849 106.284C48.7486 106.371 49.0857 106.523 49.3963 106.739C49.7069 106.951 49.9588 107.248 50.152 107.631C50.3452 108.009 50.4418 108.491 50.4418 109.074V115H49.4304V113.619H49.3679C49.2467 113.877 49.0668 114.127 48.8281 114.369C48.5895 114.612 48.2902 114.811 47.9304 114.966C47.5705 115.121 47.1482 115.199 46.6634 115.199ZM46.7997 114.273C47.3376 114.273 47.8035 114.153 48.1974 113.915C48.5914 113.676 48.8944 113.36 49.1065 112.966C49.3224 112.568 49.4304 112.131 49.4304 111.653V110.392C49.3546 110.464 49.2277 110.528 49.0497 110.585C48.8755 110.642 48.6728 110.693 48.4418 110.739C48.2145 110.78 47.9872 110.816 47.7599 110.847C47.5327 110.877 47.3281 110.903 47.1463 110.926C46.6539 110.987 46.2334 111.081 45.8849 111.21C45.5365 111.339 45.2694 111.517 45.0838 111.744C44.8982 111.968 44.8054 112.256 44.8054 112.608C44.8054 113.138 44.9948 113.549 45.3736 113.841C45.7524 114.129 46.2277 114.273 46.7997 114.273ZM54.9696 106.273V107.153H50.8048V106.273H54.9696ZM52.106 104.182H53.123V112.722C53.123 113.085 53.1855 113.371 53.3105 113.58C53.4355 113.784 53.5984 113.93 53.7991 114.017C53.9999 114.1 54.2139 114.142 54.4412 114.142C54.5738 114.142 54.6874 114.134 54.7821 114.119C54.8768 114.1 54.9601 114.081 55.0321 114.062L55.248 114.977C55.1495 115.015 55.0283 115.049 54.8844 115.08C54.7404 115.114 54.5624 115.131 54.3503 115.131C53.9791 115.131 53.6211 115.049 53.2764 114.886C52.9355 114.723 52.6552 114.481 52.4355 114.159C52.2158 113.837 52.106 113.438 52.106 112.96V104.182ZM55.6778 115V106.273H56.6949V115H55.6778ZM56.1949 104.773C55.9866 104.773 55.8085 104.703 55.6608 104.562C55.5131 104.419 55.4392 104.246 55.4392 104.045C55.4392 103.845 55.5131 103.674 55.6608 103.534C55.8085 103.39 55.9866 103.318 56.1949 103.318C56.4032 103.318 56.5812 103.39 56.729 103.534C56.8767 103.674 56.9506 103.845 56.9506 104.045C56.9506 104.246 56.8767 104.419 56.729 104.562C56.5812 104.703 56.4032 104.773 56.1949 104.773ZM64.5253 106.273L61.3378 115H60.2582L57.0707 106.273H58.1673L60.7582 113.665H60.8378L63.4287 106.273H64.5253ZM68.1199 115.182C67.3055 115.182 66.6009 114.992 66.0062 114.614C65.4116 114.231 64.9513 113.703 64.6256 113.028C64.3036 112.35 64.1426 111.57 64.1426 110.688C64.1426 109.809 64.3036 109.028 64.6256 108.347C64.9513 107.661 65.4002 107.125 65.9722 106.739C66.5479 106.348 67.2127 106.153 67.9665 106.153C68.44 106.153 68.8964 106.241 69.3358 106.415C69.7752 106.585 70.1691 106.848 70.5176 107.205C70.8699 107.557 71.1483 108.002 71.3528 108.54C71.5574 109.074 71.6597 109.706 71.6597 110.438V110.938H64.8415V110.045H70.6256C70.6256 109.485 70.5119 108.981 70.2847 108.534C70.0612 108.083 69.7487 107.727 69.3472 107.466C68.9494 107.205 68.4892 107.074 67.9665 107.074C67.4134 107.074 66.9267 107.222 66.5062 107.517C66.0858 107.812 65.7562 108.203 65.5176 108.688C65.2828 109.172 65.1634 109.703 65.1597 110.278V110.812C65.1597 111.506 65.279 112.112 65.5176 112.631C65.76 113.146 66.1028 113.545 66.546 113.83C66.9892 114.114 67.5138 114.256 68.1199 114.256C68.5328 114.256 68.8945 114.191 69.2051 114.062C69.5195 113.934 69.7828 113.761 69.9949 113.545C70.2108 113.326 70.3737 113.085 70.4835 112.824L71.4437 113.136C71.3112 113.504 71.0934 113.843 70.7903 114.153C70.4911 114.464 70.1161 114.714 69.6653 114.903C69.2184 115.089 68.7032 115.182 68.1199 115.182ZM75.3986 115V103.364H82.1486V104.318H76.4611V108.699H81.7906V109.653H76.4611V114.045H82.2622V115H75.3986ZM86.2304 115.182C85.5145 115.182 84.8876 114.992 84.3497 114.614C83.8118 114.235 83.3914 113.706 83.0884 113.028C82.7891 112.35 82.6395 111.561 82.6395 110.659C82.6395 109.761 82.7891 108.975 83.0884 108.301C83.3914 107.623 83.8137 107.097 84.3554 106.722C84.8971 106.343 85.5277 106.153 86.2474 106.153C86.7777 106.153 87.219 106.248 87.5713 106.438C87.9236 106.623 88.2058 106.854 88.4179 107.131C88.63 107.407 88.7948 107.676 88.9122 107.938H89.0031V103.364H90.0202V115H89.0315V113.381H88.9122C88.7948 113.646 88.6281 113.919 88.4122 114.199C88.1963 114.475 87.9103 114.708 87.5543 114.898C87.202 115.087 86.7607 115.182 86.2304 115.182ZM86.3497 114.256C86.9141 114.256 87.3952 114.102 87.7929 113.795C88.1906 113.485 88.4937 113.059 88.702 112.517C88.9141 111.972 89.0202 111.347 89.0202 110.642C89.0202 109.945 88.916 109.33 88.7077 108.795C88.4993 108.258 88.1963 107.837 87.7986 107.534C87.4009 107.227 86.9179 107.074 86.3497 107.074C85.7664 107.074 85.274 107.233 84.8724 107.551C84.4747 107.866 84.1717 108.292 83.9634 108.83C83.7588 109.367 83.6565 109.972 83.6565 110.642C83.6565 111.32 83.7607 111.932 83.969 112.477C84.1774 113.023 84.4804 113.456 84.8781 113.778C85.2796 114.097 85.7702 114.256 86.3497 114.256ZM91.3122 115V106.273H92.3293V115H91.3122ZM91.8293 104.773C91.6209 104.773 91.4429 104.703 91.2952 104.562C91.1474 104.419 91.0736 104.246 91.0736 104.045C91.0736 103.845 91.1474 103.674 91.2952 103.534C91.4429 103.39 91.6209 103.318 91.8293 103.318C92.0376 103.318 92.2156 103.39 92.3633 103.534C92.5111 103.674 92.5849 103.845 92.5849 104.045C92.5849 104.246 92.5111 104.419 92.3633 104.562C92.2156 104.703 92.0376 104.773 91.8293 104.773ZM96.8415 106.273V107.153H92.6767V106.273H96.8415ZM93.9778 104.182H94.9949V112.722C94.9949 113.085 95.0574 113.371 95.1824 113.58C95.3074 113.784 95.4703 113.93 95.671 114.017C95.8718 114.1 96.0858 114.142 96.3131 114.142C96.4456 114.142 96.5593 114.134 96.654 114.119C96.7487 114.1 96.832 114.081 96.904 114.062L97.1199 114.977C97.0214 115.015 96.9002 115.049 96.7562 115.08C96.6123 115.114 96.4343 115.131 96.2222 115.131C95.8509 115.131 95.493 115.049 95.1483 114.886C94.8074 114.723 94.5271 114.481 94.3074 114.159C94.0877 113.837 93.9778 113.438 93.9778 112.96V104.182ZM100.837 115.182C100.083 115.182 99.4162 114.991 98.8366 114.608C98.2609 114.225 97.8101 113.697 97.4844 113.023C97.1586 112.345 96.9957 111.562 96.9957 110.676C96.9957 109.782 97.1586 108.996 97.4844 108.318C97.8101 107.636 98.2609 107.106 98.8366 106.727C99.4162 106.345 100.083 106.153 100.837 106.153C101.59 106.153 102.255 106.345 102.831 106.727C103.407 107.11 103.857 107.64 104.183 108.318C104.513 108.996 104.678 109.782 104.678 110.676C104.678 111.562 104.515 112.345 104.189 113.023C103.863 113.697 103.411 114.225 102.831 114.608C102.255 114.991 101.59 115.182 100.837 115.182ZM100.837 114.256C101.443 114.256 101.956 114.093 102.376 113.767C102.797 113.441 103.115 113.008 103.331 112.466C103.551 111.924 103.661 111.328 103.661 110.676C103.661 110.025 103.551 109.426 103.331 108.881C103.115 108.335 102.797 107.898 102.376 107.568C101.956 107.239 101.443 107.074 100.837 107.074C100.234 107.074 99.7211 107.239 99.2969 107.568C98.8764 107.898 98.5563 108.335 98.3366 108.881C98.1207 109.426 98.0128 110.025 98.0128 110.676C98.0128 111.328 98.1207 111.924 98.3366 112.466C98.5563 113.008 98.8764 113.441 99.2969 113.767C99.7173 114.093 100.231 114.256 100.837 114.256ZM105.298 115V106.273H106.281V107.614H106.355C106.529 107.174 106.832 106.82 107.264 106.551C107.699 106.278 108.192 106.142 108.741 106.142C108.824 106.142 108.917 106.144 109.019 106.148C109.122 106.152 109.207 106.155 109.275 106.159V107.188C109.23 107.18 109.15 107.169 109.036 107.153C108.923 107.138 108.8 107.131 108.667 107.131C108.213 107.131 107.807 107.227 107.451 107.42C107.099 107.61 106.82 107.873 106.616 108.21C106.411 108.547 106.309 108.932 106.309 109.364V115H105.298Z" fill="#101010"/>
<defs>
<filter id="filter0_d_3_43" x="5.57919" y="0" width="131.842" height="151" filterUnits="userSpaceOnUse" color-interpolation-filters="sRGB">
<feFlood flood-opacity="0" result="BackgroundImageFix"/>
<feColorMatrix in="SourceAlpha" type="matrix" values="0 0 0 0 0 0 0 0 0 0 0 0 0 0 0 0 0 0 127 0" result="hardAlpha"/>
<feOffset dy="4"/>
<feGaussianBlur stdDeviation="2"/>
<feComposite in2="hardAlpha" operator="out"/>
<feColorMatrix type="matrix" values="0 0 0 0 0 0 0 0 0 0 0 0 0 0 0 0 0 0 0.25 0"/>
<feBlend mode="normal" in2="BackgroundImageFix" result="effect1_dropShadow_3_43"/>
<feBlend mode="normal" in="SourceGraphic" in2="effect1_dropShadow_3_43" result="shape"/>
</filter>
<filter id="filter1_d_3_43" x="15.4256" y="47.8182" width="111.143" height="55.8182" filterUnits="userSpaceOnUse" color-interpolation-filters="sRGB">
<feFlood flood-opacity="0" result="BackgroundImageFix"/>
<feColorMatrix in="SourceAlpha" type="matrix" values="0 0 0 0 0 0 0 0 0 0 0 0 0 0 0 0 0 0 127 0" result="hardAlpha"/>
<feOffset dy="4"/>
<feGaussianBlur stdDeviation="2"/>
<feComposite in2="hardAlpha" operator="out"/>
<feColorMatrix type="matrix" values="0 0 0 0 0 0 0 0 0 0 0 0 0 0 0 0 0 0 0.25 0"/>
<feBlend mode="normal" in2="BackgroundImageFix" result="effect1_dropShadow_3_43"/>
<feBlend mode="normal" in="SourceGraphic" in2="effect1_dropShadow_3_43" result="shape"/>
</filter>
<radialGradient id="paint0_angular_3_43" cx="0" cy="0" r="1" gradientUnits="userSpaceOnUse" gradientTransform="translate(72 72) rotate(-140.711) scale(28.4253 27.7803)">
<stop offset="0.207139" stop-color="#56B6C2"/>
<stop offset="0.736563" stop-color="#61AFEF"/>
</radialGradient>
</defs>
</svg>
